{
    "asset" : {
        "generator" : "Khronos glTF Blender I/O v1.2.75",
        "version" : "2.0"
    },
    "scene" : 0,
    "scenes" : [
        {
            "name" : "Scene",
            "nodes" : [
                11
            ]
        }
    ],
    "nodes" : [
        {
            "name" : "bust"
        },
        {
            "name" : "Object_6"
        },
        {
            "mesh" : 0,
            "name" : "pCylinder1_smokeM_0"
        },
        {
            "children" : [
                2
            ],
            "name" : "pCylinder1",
            "scale" : [
                31.3640079498291,
                28.498065948486328,
                31.3640079498291
            ],
            "translation" : [
                0,
                9,
                -0.04226112365722656
            ]
        },
        {
            "name" : "joint2_01",
            "rotation" : [
                -0.6836426854133606,
                0.016332827508449554,
                0.0783318281173706,
                0.7254171371459961
            ],
            "scale" : [
                0.9999998807907104,
                0.9999998211860657,
                0.9999997615814209
            ],
            "translation" : [
                1.0854922533035278,
                5.742841720581055,
                -0.045865800231695175
            ]
        },
        {
            "children" : [
                4
            ],
            "name" : "joint1_00",
            "rotation" : [
                0.7070384621620178,
                0.009838000871241093,
                -0.7070382833480835,
                0.009835444390773773
            ],
            "scale" : [
                1.0002598762512207,
                1.0000001192092896,
                1
            ],
            "translation" : [
                -0.22890178859233856,
                2.51835560798645,
                0.11072006076574326
            ]
        },
        {
            "children" : [
                5
            ],
            "name" : "_rootJoint",
            "rotation" : [
                1,
                5.088690720462098e-16,
                7.574776361707336e-09,
                6.339203650895797e-08
            ]
        },
        {
            "children" : [
                0,
                1,
                3,
                6
            ],
            "name" : "Object_4"
        },
        {
            "children" : [
                7
            ],
            "name" : "RootNode"
        },
        {
            "children" : [
                8
            ],
            "name" : "Object_2"
        },
        {
            "children" : [
                9
            ],
            "name" : "cde323fd0e0c4aacbabae784c3d8b435.fbx",
            "rotation" : [
                0.7071068286895752,
                0,
                0,
                0.7071068286895752
            ]
        },
        {
            "children" : [
                10
            ],
            "name" : "Sketchfab_model",
            "rotation" : [
                -0.7071068286895752,
                0,
                0,
                0.7071068286895752
            ]
        }
    ],
    "animations" : [
        {
            "channels" : [
                {
                    "sampler" : 0,
                    "target" : {
                        "node" : 6,
                        "path" : "translation"
                    }
                },
                {
                    "sampler" : 1,
                    "target" : {
                        "node" : 6,
                        "path" : "rotation"
                    }
                },
                {
                    "sampler" : 2,
                    "target" : {
                        "node" : 6,
                        "path" : "scale"
                    }
                },
                {
                    "sampler" : 3,
                    "target" : {
                        "node" : 5,
                        "path" : "translation"
                    }
                },
                {
                    "sampler" : 4,
                    "target" : {
                        "node" : 5,
                        "path" : "rotation"
                    }
                },
                {
                    "sampler" : 5,
                    "target" : {
                        "node" : 5,
                        "path" : "scale"
                    }
                },
                {
                    "sampler" : 6,
                    "target" : {
                        "node" : 4,
                        "path" : "translation"
                    }
                },
                {
                    "sampler" : 7,
                    "target" : {
                        "node" : 4,
                        "path" : "rotation"
                    }
                },
                {
                    "sampler" : 8,
                    "target" : {
                        "node" : 4,
                        "path" : "scale"
                    }
                },
                {
                    "sampler" : 9,
                    "target" : {
                        "node" : 3,
                        "path" : "rotation"
                    }
                }
            ],
            "name" : "Take 001",
            "samplers" : [
                {
                    "input" : 4,
                    "interpolation" : "LINEAR",
                    "output" : 5
                },
                {
                    "input" : 4,
                    "interpolation" : "LINEAR",
                    "output" : 6
                },
                {
                    "input" : 4,
                    "interpolation" : "LINEAR",
                    "output" : 7
                },
                {
                    "input" : 4,
                    "interpolation" : "LINEAR",
                    "output" : 8
                },
                {
                    "input" : 4,
                    "interpolation" : "LINEAR",
                    "output" : 9
                },
                {
                    "input" : 4,
                    "interpolation" : "LINEAR",
                    "output" : 10
                },
                {
                    "input" : 4,
                    "interpolation" : "LINEAR",
                    "output" : 11
                },
                {
                    "input" : 4,
                    "interpolation" : "LINEAR",
                    "output" : 12
                },
                {
                    "input" : 4,
                    "interpolation" : "LINEAR",
                    "output" : 13
                },
                {
                    "input" : 4,
                    "interpolation" : "LINEAR",
                    "output" : 14
                }
            ]
        }
    ],
    "materials" : [
        {
            "alphaMode" : "BLEND",
            "doubleSided" : true,
            "emissiveFactor" : [
                1,
                1,
                1
            ],
            "emissiveTexture" : {
                "index" : 0,
                "texCoord" : 0
            },
            "name" : "smokeM",
            "pbrMetallicRoughness" : {}
        }
    ],
    "meshes" : [
        {
            "name" : "pCylinder1_smokeM_0",
            "primitives" : [
                {
                    "attributes" : {
                        "POSITION" : 0,
                        "NORMAL" : 1,
                        "TEXCOORD_0" : 2
                    },
                    "indices" : 3,
                    "material" : 0
                }
            ]
        }
    ],
    "textures" : [
        {
            "source" : 0
        }
    ],
    "images" : [
        {
            "mimeType" : "image/png",
            "name" : "smokeM_baseColor",
            "uri" : "textures/smokeM_baseColor.png"
        }
    ],
    "accessors" : [
        {
            "bufferView" : 0,
            "componentType" : 5126,
            "count" : 42,
            "max" : [
                1,
                1,
                1.0000001192092896
            ],
            "min" : [
                -1.000000238418579,
                -1,
                -1.0000004768371582
            ],
            "type" : "VEC3"
        },
        {
            "bufferView" : 1,
            "componentType" : 5126,
            "count" : 42,
            "type" : "VEC3"
        },
        {
            "bufferView" : 2,
            "componentType" : 5126,
            "count" : 42,
            "type" : "VEC2"
        },
        {
            "bufferView" : 3,
            "componentType" : 5123,
            "count" : 120,
            "type" : "SCALAR"
        },
        {
            "bufferView" : 4,
            "componentType" : 5126,
            "count" : 640,
            "max" : [
                26.666666666666668
            ],
            "min" : [
                0.041666666666666664
            ],
            "type" : "SCALAR"
        },
        {
            "bufferView" : 5,
            "componentType" : 5126,
            "count" : 640,
            "type" : "VEC3"
        },
        {
            "bufferView" : 6,
            "componentType" : 5126,
            "count" : 640,
            "type" : "VEC4"
        },
        {
            "bufferView" : 7,
            "componentType" : 5126,
            "count" : 640,
            "type" : "VEC3"
        },
        {
            "bufferView" : 8,
            "componentType" : 5126,
            "count" : 640,
            "type" : "VEC3"
        },
        {
            "bufferView" : 9,
            "componentType" : 5126,
            "count" : 640,
            "type" : "VEC4"
        },
        {
            "bufferView" : 10,
            "componentType" : 5126,
            "count" : 640,
            "type" : "VEC3"
        },
        {
            "bufferView" : 11,
            "componentType" : 5126,
            "count" : 640,
            "type" : "VEC3"
        },
        {
            "bufferView" : 12,
            "componentType" : 5126,
            "count" : 640,
            "type" : "VEC4"
        },
        {
            "bufferView" : 13,
            "componentType" : 5126,
            "count" : 640,
            "type" : "VEC3"
        },
        {
            "bufferView" : 14,
            "componentType" : 5126,
            "count" : 640,
            "type" : "VEC4"
        }
    ],
    "bufferViews" : [
        {
            "buffer" : 0,
            "byteLength" : 504,
            "byteOffset" : 0
        },
        {
            "buffer" : 0,
            "byteLength" : 504,
            "byteOffset" : 504
        },
        {
            "buffer" : 0,
            "byteLength" : 336,
            "byteOffset" : 1008
        },
        {
            "buffer" : 0,
            "byteLength" : 240,
            "byteOffset" : 1344
        },
        {
            "buffer" : 0,
            "byteLength" : 2560,
            "byteOffset" : 1584
        },
        {
            "buffer" : 0,
            "byteLength" : 7680,
            "byteOffset" : 4144
        },
        {
            "buffer" : 0,
            "byteLength" : 10240,
            "byteOffset" : 11824
        },
        {
            "buffer" : 0,
            "byteLength" : 7680,
            "byteOffset" : 22064
        },
        {
            "buffer" : 0,
            "byteLength" : 7680,
            "byteOffset" : 29744
        },
        {
            "buffer" : 0,
            "byteLength" : 10240,
            "byteOffset" : 37424
        },
        {
            "buffer" : 0,
            "byteLength" : 7680,
            "byteOffset" : 47664
        },
        {
            "buffer" : 0,
            "byteLength" : 7680,
            "byteOffset" : 55344
        },
        {
            "buffer" : 0,
            "byteLength" : 10240,
            "byteOffset" : 63024
        },
        {
            "buffer" : 0,
            "byteLength" : 7680,
            "byteOffset" : 73264
        },
        {
            "buffer" : 0,
            "byteLength" : 10240,
            "byteOffset" : 80944
        }
    ],
    "buffers" : [
        {
            "byteLength" : 91184,
            "uri" : "scene.bin"
        }
    ]
}
